<svg width="61" height="65" viewBox="0 0 61 65" fill="none" xmlns="http://www.w3.org/2000/svg">
<path d="M42.8636 56.875V51.4583C42.8636 48.5852 41.8215 45.8297 39.9666 43.798C38.1117 41.7664 35.5959 40.625 32.9727 40.625H13.1908C10.5675 40.625 8.05171 41.7664 6.1968 43.798C4.34188 45.8297 3.2998 48.5852 3.2998 51.4583V56.875" stroke="#174873" stroke-width="2" stroke-linecap="round" stroke-linejoin="round"/>
<path d="M23.0819 29.7917C28.5445 29.7917 32.9728 24.9414 32.9728 18.9583C32.9728 12.9752 28.5445 8.125 23.0819 8.125C17.6192 8.125 13.1909 12.9752 13.1909 18.9583C13.1909 24.9414 17.6192 29.7917 23.0819 29.7917Z" stroke="#174873" stroke-width="2" stroke-linecap="round" stroke-linejoin="round"/>
<path d="M57.7 56.875V51.4584C57.6983 49.058 56.9689 46.7263 55.6262 44.8292C54.2836 42.9321 52.4037 41.5772 50.2817 40.9771" stroke="#174873" stroke-width="2" stroke-linecap="round" stroke-linejoin="round"/>
<path d="M40.3911 8.47711C42.5187 9.07376 44.4045 10.429 45.7511 12.3292C47.0978 14.2294 47.8287 16.5664 47.8287 18.9719C47.8287 21.3774 47.0978 23.7144 45.7511 25.6146C44.4045 27.5148 42.5187 28.87 40.3911 29.4667" stroke="#174873" stroke-width="2" stroke-linecap="round" stroke-linejoin="round"/>
</svg>
