<svg width="45" height="44" viewBox="0 0 45 44" fill="none" xmlns="http://www.w3.org/2000/svg">
<rect x="0.5" width="44" height="44" rx="22" fill="#E69700"/>
<path d="M12.5 17L20.6649 22.7154C21.3261 23.1783 21.6567 23.4097 22.0163 23.4993C22.3339 23.5785 22.6661 23.5785 22.9837 23.4993C23.3433 23.4097 23.6739 23.1783 24.3351 22.7154L32.5 17M17.3 30H27.7C29.3802 30 30.2202 30 30.862 29.673C31.4265 29.3854 31.8854 28.9265 32.173 28.362C32.5 27.7202 32.5 26.8802 32.5 25.2V18.8C32.5 17.1198 32.5 16.2798 32.173 15.638C31.8854 15.0735 31.4265 14.6146 30.862 14.327C30.2202 14 29.3802 14 27.7 14H17.3C15.6198 14 14.7798 14 14.138 14.327C13.5735 14.6146 13.1146 15.0735 12.827 15.638C12.5 16.2798 12.5 17.1198 12.5 18.8V25.2C12.5 26.8802 12.5 27.7202 12.827 28.362C13.1146 28.9265 13.5735 29.3854 14.138 29.673C14.7798 30 15.6198 30 17.3 30Z" stroke="white" stroke-width="2" stroke-linecap="round" stroke-linejoin="round"/>
</svg>
