<?xml version="1.0" standalone="no"?>
<!DOCTYPE svg PUBLIC "-//W3C//DTD SVG 20010904//EN"
 "http://www.w3.org/TR/2001/REC-SVG-20010904/DTD/svg10.dtd">
<svg version="1.0" xmlns="http://www.w3.org/2000/svg"
 width="1200.000000pt" height="630.000000pt" viewBox="0 0 1200.000000 630.000000"
 preserveAspectRatio="xMidYMid meet">

<g transform="translate(0.000000,630.000000) scale(0.100000,-0.100000)"
fill="#000000" stroke="none">
<path d="M5378 6015 c-3 -4 -49 -10 -102 -15 -82 -7 -108 -14 -183 -50 -291
-139 -501 -360 -593 -625 -37 -106 -38 -353 -4 -641 6 -45 4 -53 -19 -78 -31
-33 -43 -107 -33 -198 12 -105 56 -261 83 -296 16 -21 34 -70 49 -135 25 -102
92 -289 106 -295 5 -2 8 -9 8 -16 0 -19 77 -143 143 -231 116 -154 301 -307
422 -351 28 -9 55 -21 60 -25 38 -26 237 -38 325 -19 43 10 63 17 160 56 112
45 278 174 375 292 31 37 61 74 68 82 22 27 87 131 87 140 0 4 4 10 8 12 26
10 134 281 153 383 6 32 24 75 45 106 19 28 36 61 39 73 2 11 14 59 25 105 28
115 28 253 0 299 l-20 33 20 87 c47 197 48 371 5 546 -27 110 -47 158 -100
241 -43 67 -171 197 -225 227 -19 10 -53 30 -75 43 -22 14 -69 36 -105 51 -36
14 -74 30 -85 35 -94 41 -373 120 -505 144 -41 8 -86 17 -100 20 -14 4 -28 3
-32 0z"/>
<path d="M4821 3279 c-3 -45 -229 -202 -343 -239 -21 -6 -40 -15 -43 -20 -3
-5 -29 -16 -58 -26 -28 -9 -56 -20 -62 -24 -5 -4 -35 -15 -65 -25 -30 -10 -59
-21 -65 -25 -5 -4 -62 -24 -125 -45 -171 -56 -304 -134 -388 -230 -82 -93
-200 -378 -247 -595 -9 -41 -20 -85 -25 -98 -6 -12 -19 -77 -30 -145 -11 -67
-25 -140 -30 -162 -5 -22 -12 -60 -14 -85 -20 -188 -28 -253 -37 -311 -6 -36
-11 -137 -11 -225 -1 -156 0 -160 29 -224 34 -74 52 -93 108 -110 22 -7 49
-18 60 -25 11 -6 85 -34 165 -60 80 -26 154 -52 165 -56 24 -10 148 -41 300
-75 169 -39 191 -43 315 -65 63 -11 140 -24 170 -30 49 -9 148 -23 355 -50
174 -22 452 -43 580 -42 131 1 592 37 625 49 8 3 92 16 185 29 146 20 386 61
478 81 24 5 40 34 18 34 -5 0 -18 15 -29 32 -40 63 -149 161 -266 239 -122 82
-378 216 -508 264 -40 15 -77 31 -83 35 -13 10 -132 48 -220 70 -123 31 -350
92 -357 96 -4 3 13 44 36 92 24 48 92 186 151 307 513 1049 695 1415 703 1415
4 0 26 -13 49 -28 22 -15 74 -47 113 -72 395 -246 662 -449 924 -701 l90 -86
50 55 c28 30 52 59 54 63 5 13 -57 163 -111 269 -51 99 -98 156 -157 193 -19
12 -39 27 -45 33 -10 13 -146 84 -160 84 -4 0 -21 7 -38 15 -18 8 -57 24 -87
35 -30 12 -59 25 -65 30 -5 4 -35 15 -65 25 -30 10 -59 21 -65 25 -5 4 -35 15
-65 25 -30 9 -68 22 -85 29 -16 7 -46 19 -65 26 -43 15 -153 71 -160 80 -3 4
-18 14 -35 23 -16 8 -54 38 -82 65 l-53 51 0 -62 c0 -76 -18 -222 -29 -245 -5
-9 -14 -37 -21 -62 -36 -138 -149 -279 -275 -342 -176 -89 -446 -87 -625 5
-125 64 -227 168 -291 298 -57 115 -69 144 -85 216 -9 37 -20 76 -25 85 -5 10
-9 32 -10 50 -1 36 -16 93 -18 67z"/>
<path d="M9445 3260 c-130 -45 -367 -171 -515 -272 -47 -32 -94 -64 -104 -70
-53 -36 -294 -227 -391 -310 -225 -195 -664 -641 -854 -868 -30 -36 -60 -69
-66 -75 -5 -5 -25 -29 -43 -52 l-34 -43 -88 108 c-181 220 -550 558 -779 712
-20 14 -60 42 -88 63 -28 20 -55 37 -59 37 -5 0 -31 -46 -58 -103 -28 -56
-133 -270 -234 -475 -101 -206 -182 -375 -180 -376 5 -5 136 -56 143 -56 3 0
31 -11 61 -25 30 -14 57 -25 60 -25 3 0 30 -11 60 -25 30 -14 80 -37 112 -51
62 -29 262 -137 302 -164 14 -9 52 -35 85 -56 33 -21 62 -41 65 -44 3 -3 23
-18 45 -35 68 -49 184 -166 244 -245 32 -41 102 -133 156 -205 54 -71 115
-151 136 -178 l38 -47 15 22 c9 12 16 26 16 30 0 10 22 59 102 226 32 68 58
126 58 129 0 28 329 647 458 863 28 47 61 103 73 125 28 51 211 327 308 465
305 432 611 756 904 958 49 33 94 63 100 65 7 2 10 7 7 9 -3 3 -27 -2 -55 -12z"/>
</g>
</svg>
