<?xml version="1.0" standalone="no"?>
<!DOCTYPE svg PUBLIC "-//W3C//DTD SVG 20010904//EN"
 "http://www.w3.org/TR/2001/REC-SVG-20010904/DTD/svg10.dtd">
<svg version="1.0" xmlns="http://www.w3.org/2000/svg"
 width="512.000000pt" height="512.000000pt" viewBox="0 0 512.000000 512.000000"
 preserveAspectRatio="xMidYMid meet">

<g transform="translate(0.000000,512.000000) scale(0.100000,-0.100000)"
fill="#000000" stroke="none">
<path d="M625 5108 c-41 -22 -45 -37 -45 -180 l0 -138 -130 0 c-136 0 -180
-10 -194 -45 -8 -22 -8 -4678 0 -4700 18 -46 -30 -45 1474 -45 l1411 0 -3 82
-3 83 -1362 3 -1363 2 0 2225 0 2225 1240 0 1240 0 0 -299 0 -300 24 -28 24
-28 306 -3 306 -3 0 -330 0 -330 83 3 82 3 0 388 0 387 -355 355 -356 355
-1132 0 -1132 0 0 80 0 80 1570 0 1570 0 0 -905 0 -905 85 0 85 0 -2 966 -3
966 -28 24 -28 24 -1672 0 c-1191 -1 -1678 -4 -1692 -12z m2625 -793 l185
-185 -188 0 -187 0 0 185 c0 102 1 185 3 185 1 0 85 -83 187 -185z"/>
<path d="M660 4375 l0 -86 83 3 82 3 3 83 3 82 -86 0 -85 0 0 -85z"/>
<path d="M990 4375 l0 -86 83 3 82 3 3 83 3 82 -86 0 -85 0 0 -85z"/>
<path d="M1320 4375 l0 -86 83 3 82 3 3 83 3 82 -86 0 -85 0 0 -85z"/>
<path d="M1650 4375 l0 -85 538 2 537 3 0 80 0 80 -537 3 -538 2 0 -85z"/>
<path d="M580 3715 l0 -85 1073 2 1072 3 0 80 0 80 -1072 3 -1073 2 0 -85z"/>
<path d="M580 3385 l0 -85 1073 2 1072 3 0 80 0 80 -1072 3 -1073 2 0 -85z"/>
<path d="M580 3055 l0 -85 1073 2 1072 3 0 80 0 80 -1072 3 -1073 2 0 -85z"/>
<path d="M3615 3132 c-11 -2 -66 -50 -122 -107 -191 -193 -409 -311 -666 -360
-45 -9 -150 -18 -234 -22 -144 -6 -154 -7 -175 -30 l-23 -25 0 -731 c0 -772 0
-769 47 -917 58 -182 191 -357 353 -467 108 -73 818 -473 839 -473 21 0 731
400 840 473 171 115 309 310 368 522 22 79 23 87 26 838 l3 757 -24 23 c-21
22 -34 24 -176 30 -380 17 -641 127 -888 375 -103 103 -131 122 -168 114z
m190 -358 c228 -180 544 -293 823 -294 l83 0 -3 -682 c-4 -662 -5 -685 -25
-759 -50 -179 -157 -330 -301 -428 -52 -35 -739 -431 -748 -431 -15 0 -736
420 -785 458 -82 61 -161 159 -210 257 -76 156 -73 119 -77 893 l-3 692 81 0
c223 0 503 84 702 210 89 57 202 146 258 204 l34 36 61 -58 c33 -32 83 -76
110 -98z"/>
<path d="M3451 2375 c-135 -30 -219 -66 -326 -138 -171 -116 -299 -291 -362
-494 -24 -80 -27 -103 -27 -253 -1 -143 2 -175 22 -243 88 -306 319 -539 627
-633 81 -25 106 -27 245 -28 132 -1 166 3 233 22 324 93 556 325 649 649 19
67 23 101 22 233 -1 139 -3 164 -28 245 -93 305 -326 538 -628 626 -96 28
-331 36 -427 14z m327 -161 c178 -37 320 -124 435 -267 105 -131 158 -283 159
-457 1 -133 -19 -217 -79 -340 -40 -80 -61 -109 -137 -186 -77 -76 -106 -97
-186 -137 -123 -60 -207 -80 -340 -79 -496 2 -847 473 -708 948 108 365 486
595 856 518z"/>
<path d="M3791 1888 c-5 -18 -51 -170 -101 -338 -51 -168 -94 -307 -96 -309
-3 -3 -37 27 -77 67 l-73 72 -57 -58 -57 -58 138 -137 c216 -214 201 -227 362
313 67 223 123 412 126 421 3 12 -12 21 -70 37 -41 12 -77 22 -79 22 -3 0 -10
-15 -16 -32z"/>
<path d="M580 2725 l0 -85 825 0 825 0 0 85 0 85 -825 0 -825 0 0 -85z"/>
<path d="M580 2395 l0 -85 825 0 825 0 0 85 0 85 -825 0 -825 0 0 -85z"/>
<path d="M580 2065 l0 -85 825 0 825 0 0 85 0 85 -825 0 -825 0 0 -85z"/>
<path d="M580 1075 l0 -85 825 0 825 0 0 85 0 85 -825 0 -825 0 0 -85z"/>
<path d="M580 745 l0 -85 825 0 825 0 0 85 0 85 -825 0 -825 0 0 -85z"/>
<path d="M580 415 l0 -85 825 0 825 0 0 85 0 85 -825 0 -825 0 0 -85z"/>
</g>
</svg>
