<?xml version="1.0" standalone="no"?>
<!DOCTYPE svg PUBLIC "-//W3C//DTD SVG 20010904//EN"
 "http://www.w3.org/TR/2001/REC-SVG-20010904/DTD/svg10.dtd">
<svg version="1.0" xmlns="http://www.w3.org/2000/svg"
 width="512.000000pt" height="512.000000pt" viewBox="0 0 512.000000 512.000000"
 preserveAspectRatio="xMidYMid meet">

<g transform="translate(0.000000,512.000000) scale(0.100000,-0.100000)"
fill="#000000" stroke="none">
<path d="M580 5111 c-92 -28 -169 -94 -209 -180 l-26 -56 0 -1105 c0 -1183 -3
-1111 46 -1187 12 -20 12 -26 0 -45 -49 -77 -46 -5 -46 -1188 l0 -1105 26 -56
c32 -68 82 -120 152 -157 l52 -27 1985 0 1985 0 52 27 c70 37 120 89 152 157
l26 56 3 314 c4 335 1 359 -44 380 -37 16 -52 14 -79 -14 l-25 -24 0 -298 c0
-165 -5 -314 -10 -333 -11 -41 -61 -94 -103 -109 -40 -15 -3874 -15 -3914 0
-42 15 -92 68 -103 109 -6 22 -10 429 -10 1092 l0 1058 29 32 29 33 2011 0
2011 0 27 -28 28 -27 5 -626 c5 -605 6 -626 24 -640 33 -24 82 -18 106 13 20
26 21 29 18 652 -3 664 -1 634 -48 708 -12 19 -11 27 16 75 l29 53 0 1105 0
1105 -26 56 c-32 68 -82 120 -152 157 l-52 27 -1553 3 -1553 2 -24 -24 c-32
-32 -32 -70 0 -101 l24 -25 1526 0 c1259 0 1531 -2 1558 -14 49 -20 95 -78
102 -128 3 -24 5 -514 3 -1090 l-3 -1048 -28 -27 -27 -28 -2011 0 -2011 0 -29
33 -29 32 0 1058 c0 663 4 1070 10 1092 11 41 61 94 103 109 17 7 127 11 282
11 232 0 255 2 276 19 32 26 32 86 0 112 -21 18 -43 19 -290 18 -146 0 -277
-4 -291 -8z"/>
<path d="M896 4319 c-17 -14 -26 -30 -26 -49 0 -16 72 -238 160 -492 173 -499
177 -508 244 -508 71 0 72 1 242 513 169 508 170 513 115 542 -36 18 -82 5
-100 -28 -6 -12 -65 -188 -132 -391 -66 -202 -122 -366 -125 -363 -2 2 -63
172 -134 378 -101 289 -136 379 -156 397 -31 27 -54 28 -88 1z"/>
<path d="M2004 4328 c-43 -20 -44 -38 -44 -532 0 -464 0 -474 21 -500 27 -34
79 -36 109 -4 20 21 20 32 20 510 l0 489 -25 24 c-26 27 -47 30 -81 13z"/>
<path d="M2701 4329 c-188 -37 -296 -231 -216 -388 36 -71 77 -99 242 -165 81
-32 167 -70 191 -83 98 -56 108 -154 23 -226 -44 -36 -93 -50 -169 -45 -79 4
-165 41 -223 93 -65 59 -142 40 -142 -36 0 -40 66 -107 147 -148 227 -116 468
-63 569 124 17 32 22 57 22 120 0 93 -13 124 -80 190 -51 51 -93 74 -275 146
-158 63 -180 80 -180 142 0 85 62 131 177 131 67 0 79 -3 165 -47 80 -41 97
-47 120 -38 31 11 48 39 48 74 0 52 -134 134 -255 156 -67 12 -101 13 -164 0z"/>
<path d="M3767 4322 c-30 -19 -17 14 -246 -588 -77 -203 -141 -382 -141 -397
0 -57 73 -88 118 -49 12 9 36 58 55 107 l34 90 228 0 229 0 36 -94 c20 -51 45
-100 55 -107 46 -34 115 -1 115 54 0 15 -79 236 -175 491 -96 255 -175 465
-175 467 0 10 -67 44 -85 44 -11 0 -32 -8 -48 -18z m136 -460 c42 -112 77
-208 77 -213 0 -5 -72 -9 -165 -9 -91 0 -165 2 -165 5 0 20 164 434 170 428 4
-4 41 -100 83 -211z"/>
<path d="M792 2290 c-18 -11 -41 -34 -52 -52 -19 -32 -20 -53 -20 -916 0 -972
-3 -932 62 -972 32 -19 49 -20 696 -20 747 0 704 -4 742 76 20 40 20 59 18
927 -3 878 -3 886 -24 914 -48 65 -21 63 -739 63 -631 0 -651 -1 -683 -20z
m1296 -972 l-3 -843 -607 -3 -608 -2 0 845 0 845 610 0 610 0 -2 -842z"/>
<path d="M1327 2055 c-185 -51 -328 -212 -357 -401 -7 -46 -10 -205 -8 -440 3
-362 4 -370 27 -429 32 -80 117 -164 198 -196 52 -21 78 -23 264 -27 167 -3
219 -1 270 12 110 29 183 89 240 196 l24 45 0 445 0 445 -37 78 c-66 138 -181
235 -323 272 -72 18 -231 18 -298 0z m325 -168 c115 -56 188 -174 188 -303 l0
-65 -37 6 c-175 30 -331 117 -409 231 -34 51 -45 59 -75 62 -44 4 -55 -9 -108
-113 -22 -44 -54 -94 -72 -110 l-32 -30 7 45 c13 91 37 140 95 201 82 88 143
111 281 107 91 -3 112 -7 162 -31z m-257 -347 c101 -76 239 -138 345 -155 87
-13 83 -9 77 -82 -12 -127 -82 -230 -195 -285 -123 -61 -265 -39 -368 55 -76
69 -107 138 -112 246 l-4 86 55 39 c29 22 71 63 93 93 21 29 39 53 41 53 1 0
32 -23 68 -50z m-114 -664 c179 -79 378 -47 523 84 l38 35 -3 -76 c-5 -90 -33
-141 -102 -180 -41 -23 -48 -24 -258 -24 l-216 0 -49 30 c-64 40 -95 95 -102
183 l-5 66 59 -47 c32 -25 84 -57 115 -71z"/>
<path d="M2551 2124 c-12 -15 -21 -37 -21 -50 0 -28 30 -61 62 -69 13 -3 416
-4 896 -3 l874 3 19 24 c25 30 24 62 -2 95 l-20 26 -894 0 -894 0 -20 -26z"/>
<path d="M2551 1744 c-26 -33 -27 -65 -2 -95 19 -24 20 -24 282 -27 281 -3
308 0 328 44 16 35 14 48 -10 78 l-20 26 -279 0 -279 0 -20 -26z"/>
<path d="M3785 1745 c-28 -27 -30 -42 -14 -79 20 -44 47 -47 328 -44 262 3
263 3 282 27 25 30 24 62 -2 95 l-20 26 -275 0 -275 0 -24 -25z"/>
<path d="M2551 1364 c-26 -33 -27 -65 -2 -95 19 -24 20 -24 282 -27 281 -3
308 0 328 44 16 37 14 52 -14 79 l-24 25 -275 0 -275 0 -20 -26z"/>
<path d="M3785 1365 c-28 -27 -30 -42 -14 -79 20 -44 47 -47 328 -44 262 3
263 3 282 27 25 30 24 62 -2 95 l-20 26 -275 0 -275 0 -24 -25z"/>
<path d="M2551 984 c-26 -33 -27 -65 -2 -95 l19 -24 646 -3 646 -2 25 24 c32
32 33 75 2 104 l-23 22 -646 0 -647 0 -20 -26z"/>
<path d="M2551 604 c-26 -33 -27 -65 -2 -95 l19 -24 646 -3 646 -2 25 24 c32
32 33 75 2 104 l-23 22 -646 0 -647 0 -20 -26z"/>
</g>
</svg>
