<svg width="181" height="27" viewBox="0 0 181 27" fill="none" xmlns="http://www.w3.org/2000/svg">
<path d="M0 0H181V23C181 25.2091 179.209 27 177 27H4C1.79086 27 0 25.2091 0 23V0Z" fill="white"/>
<path d="M52.036 18.736L52.028 20H44.964V8.536H52.028V9.8H46.516V13.608H50.98V14.824H46.516V18.736H52.036ZM54.9876 13.072C55.1636 12.8747 55.3503 12.696 55.5476 12.536C55.745 12.376 55.953 12.24 56.1716 12.128C56.3956 12.0107 56.6303 11.9227 56.8756 11.864C57.1263 11.8 57.3956 11.768 57.6836 11.768C58.1263 11.768 58.5156 11.8427 58.8516 11.992C59.193 12.136 59.4756 12.344 59.6996 12.616C59.929 12.8827 60.1023 13.2053 60.2196 13.584C60.337 13.9627 60.3956 14.3813 60.3956 14.84V20H58.9636V14.84C58.9636 14.2267 58.8223 13.752 58.5396 13.416C58.2623 13.0747 57.8383 12.904 57.2676 12.904C56.8463 12.904 56.4516 13.0053 56.0836 13.208C55.721 13.4107 55.385 13.6853 55.0756 14.032V20H53.6436V11.896H54.4996C54.7023 11.896 54.8276 11.9947 54.8756 12.192L54.9876 13.072ZM65.3895 16.04C65.6775 16.04 65.9308 16 66.1495 15.92C66.3682 15.84 66.5522 15.728 66.7015 15.584C66.8508 15.44 66.9628 15.2693 67.0375 15.072C67.1122 14.8693 67.1495 14.648 67.1495 14.408C67.1495 13.912 66.9975 13.5173 66.6935 13.224C66.3948 12.9307 65.9602 12.784 65.3895 12.784C64.8135 12.784 64.3735 12.9307 64.0695 13.224C63.7708 13.5173 63.6215 13.912 63.6215 14.408C63.6215 14.648 63.6588 14.8693 63.7335 15.072C63.8135 15.2693 63.9282 15.44 64.0775 15.584C64.2268 15.728 64.4108 15.84 64.6295 15.92C64.8482 16 65.1015 16.04 65.3895 16.04ZM67.9575 20.44C67.9575 20.2427 67.9015 20.0827 67.7895 19.96C67.6775 19.8373 67.5255 19.7413 67.3335 19.672C67.1468 19.6027 66.9282 19.5547 66.6775 19.528C66.4268 19.496 66.1602 19.472 65.8775 19.456C65.6002 19.44 65.3175 19.424 65.0295 19.408C64.7415 19.392 64.4642 19.3653 64.1975 19.328C63.8988 19.4667 63.6535 19.6427 63.4615 19.856C63.2748 20.064 63.1815 20.3093 63.1815 20.592C63.1815 20.7733 63.2268 20.9413 63.3175 21.096C63.4135 21.256 63.5575 21.392 63.7495 21.504C63.9415 21.6213 64.1815 21.712 64.4695 21.776C64.7628 21.8453 65.1068 21.88 65.5015 21.88C65.8855 21.88 66.2295 21.8453 66.5335 21.776C66.8375 21.7067 67.0935 21.608 67.3015 21.48C67.5148 21.352 67.6775 21.2 67.7895 21.024C67.9015 20.848 67.9575 20.6533 67.9575 20.44ZM69.4055 12.216V12.744C69.4055 12.92 69.2935 13.032 69.0695 13.08L68.1495 13.2C68.3308 13.552 68.4215 13.9413 68.4215 14.368C68.4215 14.7627 68.3442 15.1227 68.1895 15.448C68.0402 15.768 67.8322 16.0427 67.5655 16.272C67.2988 16.5013 66.9788 16.6773 66.6055 16.8C66.2322 16.9227 65.8268 16.984 65.3895 16.984C65.0108 16.984 64.6535 16.9387 64.3175 16.848C64.1468 16.9547 64.0162 17.0693 63.9255 17.192C63.8348 17.3093 63.7895 17.4293 63.7895 17.552C63.7895 17.744 63.8668 17.8907 64.0215 17.992C64.1815 18.088 64.3895 18.1573 64.6455 18.2C64.9015 18.2427 65.1922 18.2693 65.5175 18.28C65.8482 18.2907 66.1842 18.3093 66.5255 18.336C66.8722 18.3573 67.2082 18.3973 67.5335 18.456C67.8642 18.5147 68.1575 18.6107 68.4135 18.744C68.6695 18.8773 68.8748 19.0613 69.0295 19.296C69.1895 19.5307 69.2695 19.8347 69.2695 20.208C69.2695 20.5547 69.1815 20.8907 69.0055 21.216C68.8348 21.5413 68.5868 21.8293 68.2615 22.08C67.9362 22.336 67.5362 22.5387 67.0615 22.688C66.5922 22.8427 66.0615 22.92 65.4695 22.92C64.8775 22.92 64.3602 22.8613 63.9175 22.744C63.4748 22.6267 63.1068 22.4693 62.8135 22.272C62.5202 22.0747 62.2988 21.8453 62.1495 21.584C62.0055 21.328 61.9335 21.0587 61.9335 20.776C61.9335 20.376 62.0588 20.0373 62.3095 19.76C62.5602 19.4827 62.9042 19.2613 63.3415 19.096C63.1015 18.9893 62.9095 18.848 62.7655 18.672C62.6268 18.4907 62.5575 18.248 62.5575 17.944C62.5575 17.8267 62.5788 17.7067 62.6215 17.584C62.6642 17.456 62.7282 17.3307 62.8135 17.208C62.9042 17.08 63.0135 16.96 63.1415 16.848C63.2695 16.736 63.4188 16.6373 63.5895 16.552C63.1895 16.328 62.8775 16.032 62.6535 15.664C62.4295 15.2907 62.3175 14.8587 62.3175 14.368C62.3175 13.9733 62.3922 13.616 62.5415 13.296C62.6962 12.9707 62.9095 12.696 63.1815 12.472C63.4535 12.2427 63.7762 12.0667 64.1495 11.944C64.5282 11.8213 64.9415 11.76 65.3895 11.76C65.7415 11.76 66.0695 11.8 66.3735 11.88C66.6775 11.9547 66.9548 12.0667 67.2055 12.216H69.4055ZM72.35 8.216V20H70.926V8.216H72.35ZM76.1633 11.896V20H74.7393V11.896H76.1633ZM76.4673 9.352C76.4673 9.49067 76.4379 9.62133 76.3793 9.744C76.3259 9.86133 76.2513 9.968 76.1553 10.064C76.0646 10.1547 75.9553 10.2267 75.8273 10.28C75.7046 10.3333 75.5739 10.36 75.4353 10.36C75.2966 10.36 75.1659 10.3333 75.0433 10.28C74.9259 10.2267 74.8219 10.1547 74.7313 10.064C74.6406 9.968 74.5686 9.86133 74.5153 9.744C74.4619 9.62133 74.4353 9.49067 74.4353 9.352C74.4353 9.21333 74.4619 9.08267 74.5153 8.96C74.5686 8.832 74.6406 8.72267 74.7313 8.632C74.8219 8.536 74.9259 8.46133 75.0433 8.408C75.1659 8.35467 75.2966 8.328 75.4353 8.328C75.5739 8.328 75.7046 8.35467 75.8273 8.408C75.9553 8.46133 76.0646 8.536 76.1553 8.632C76.2513 8.72267 76.3259 8.832 76.3793 8.96C76.4379 9.08267 76.4673 9.21333 76.4673 9.352ZM83.223 13.232C83.159 13.3493 83.0603 13.408 82.927 13.408C82.847 13.408 82.7563 13.3787 82.655 13.32C82.5537 13.2613 82.4283 13.1973 82.279 13.128C82.135 13.0533 81.9617 12.9867 81.759 12.928C81.5563 12.864 81.3163 12.832 81.039 12.832C80.799 12.832 80.583 12.864 80.391 12.928C80.199 12.9867 80.0337 13.0693 79.895 13.176C79.7617 13.2827 79.6577 13.408 79.583 13.552C79.5137 13.6907 79.479 13.8427 79.479 14.008C79.479 14.216 79.5377 14.3893 79.655 14.528C79.7777 14.6667 79.9377 14.7867 80.135 14.888C80.3323 14.9893 80.5563 15.08 80.807 15.16C81.0577 15.2347 81.3137 15.3173 81.575 15.408C81.8417 15.4933 82.1003 15.5893 82.351 15.696C82.6017 15.8027 82.8257 15.936 83.023 16.096C83.2203 16.256 83.3777 16.4533 83.495 16.688C83.6177 16.9173 83.679 17.1947 83.679 17.52C83.679 17.8933 83.6123 18.24 83.479 18.56C83.3457 18.8747 83.1483 19.1493 82.887 19.384C82.6257 19.6133 82.3057 19.7947 81.927 19.928C81.5483 20.0613 81.111 20.128 80.615 20.128C80.0497 20.128 79.5377 20.0373 79.079 19.856C78.6203 19.6693 78.231 19.432 77.911 19.144L78.247 18.6C78.2897 18.5307 78.3403 18.4773 78.399 18.44C78.4577 18.4027 78.5323 18.384 78.623 18.384C78.719 18.384 78.8203 18.4213 78.927 18.496C79.0337 18.5707 79.1617 18.6533 79.311 18.744C79.4657 18.8347 79.6523 18.9173 79.871 18.992C80.0897 19.0667 80.3617 19.104 80.687 19.104C80.9643 19.104 81.207 19.0693 81.415 19C81.623 18.9253 81.7963 18.8267 81.935 18.704C82.0737 18.5813 82.175 18.44 82.239 18.28C82.3083 18.12 82.343 17.9493 82.343 17.768C82.343 17.544 82.2817 17.36 82.159 17.216C82.0417 17.0667 81.8843 16.9413 81.687 16.84C81.4897 16.7333 81.263 16.6427 81.007 16.568C80.7563 16.488 80.4977 16.4053 80.231 16.32C79.9697 16.2347 79.711 16.1387 79.455 16.032C79.2043 15.92 78.9803 15.7813 78.783 15.616C78.5857 15.4507 78.4257 15.248 78.303 15.008C78.1857 14.7627 78.127 14.4667 78.127 14.12C78.127 13.8107 78.191 13.5147 78.319 13.232C78.447 12.944 78.6337 12.6933 78.879 12.48C79.1243 12.2613 79.4257 12.088 79.783 11.96C80.1403 11.832 80.5483 11.768 81.007 11.768C81.5403 11.768 82.0177 11.8533 82.439 12.024C82.8657 12.1893 83.2337 12.4187 83.543 12.712L83.223 13.232ZM86.8569 12.976C87.2035 12.608 87.5875 12.3147 88.0089 12.096C88.4302 11.8773 88.9155 11.768 89.4649 11.768C89.9075 11.768 90.2969 11.8427 90.6329 11.992C90.9742 12.136 91.2569 12.344 91.4809 12.616C91.7102 12.8827 91.8835 13.2053 92.0009 13.584C92.1182 13.9627 92.1769 14.3813 92.1769 14.84V20H90.7449V14.84C90.7449 14.2267 90.6035 13.752 90.3209 13.416C90.0435 13.0747 89.6195 12.904 89.0489 12.904C88.6275 12.904 88.2329 13.0053 87.8649 13.208C87.5022 13.4107 87.1662 13.6853 86.8569 14.032V20H85.4249V8.216H86.8569V12.976Z" fill="#666666"/>
<g clip-path="url(#clip0_94_1097)">
<path fill-rule="evenodd" clip-rule="evenodd" d="M10 4H34V5.3875H10V4ZM10 6.77125H34V8.15875H10V6.77125ZM10 9.53875H34V10.9262H10V9.53875ZM10 12.3063H34V13.6938H10V12.3063ZM10 15.0813H34V16.4613H10V15.0813ZM10 17.845H34V19.2325H10V17.845ZM10 20.6125H34V22H10V20.6125Z" fill="#BD3D44"/>
<path fill-rule="evenodd" clip-rule="evenodd" d="M10 5.38745H34V6.7712H10V5.38745ZM10 8.15495H34V9.5387H10V8.15495ZM10 10.9225H34V12.31H10V10.9225ZM10 13.6937H34V15.0812H10V13.6937ZM10 16.4612H34V17.8487H10V16.4612ZM10 19.2287H34V20.6162H10V19.2287Z" fill="white"/>
<path fill-rule="evenodd" clip-rule="evenodd" d="M10 4H23.68V13.6938H10V4Z" fill="#192F5D"/>
<path fill-rule="evenodd" clip-rule="evenodd" d="M11.1401 4.41248L11.2676 4.79873H11.6651L11.3426 5.03498L11.4663 5.42123L11.1401 5.18123L10.8176 5.41748L10.9376 5.03498L10.6113 4.79873H11.0201L11.1401 4.41248ZM13.4201 4.41248L13.5438 4.79873H13.9488L13.6226 5.03498L13.7426 5.42123L13.4201 5.18123L13.0938 5.41748L13.2176 5.03498L12.8951 4.79873H13.2926L13.4201 4.41248ZM15.7001 4.41248L15.8238 4.79873H16.2251L15.9026 5.03498L16.0263 5.42123L15.7001 5.18123L15.3738 5.41748L15.4976 5.03498L15.1713 4.79873H15.5763L15.7001 4.41248ZM17.9801 4.41248L18.1038 4.79873H18.5088L18.1826 5.03498L18.3063 5.42123L17.9801 5.18123L17.6538 5.41748L17.7813 5.03498L17.4513 4.79873H17.8526L17.9801 4.41248ZM20.2601 4.41248L20.3838 4.79873H20.7851L20.4626 5.03498L20.5863 5.42123L20.2601 5.18123L19.9338 5.41748L20.0576 5.03498L19.7351 4.79873H20.1363L20.2601 4.41248ZM22.5401 4.41248L22.6638 4.79873H23.0688L22.7388 5.03498L22.8663 5.42123L22.5401 5.18123L22.2138 5.41748L22.3413 5.03498L22.0113 4.79873H22.4163L22.5401 4.41248ZM12.2801 5.38748L12.4038 5.76998H12.8126L12.4863 6.00248L12.6063 6.38873L12.2876 6.15248L11.9613 6.38873L12.0776 6.00248L11.7626 5.76998H12.1638L12.2801 5.38748ZM14.5601 5.38748L14.6876 5.76998H15.0888L14.7588 6.00248L14.8863 6.38873L14.5601 6.15248L14.2338 6.38873L14.3576 6.00248L14.0313 5.76998H14.4363L14.5601 5.38748ZM16.8401 5.38748L16.9638 5.76998H17.3688L17.0426 6.00248L17.1663 6.38873L16.8401 6.15248L16.5138 6.38873L16.6376 6.00248L16.3151 5.76998H16.7126L16.8401 5.38748ZM19.1201 5.38748L19.2476 5.76998H19.6488L19.3188 6.00248L19.4463 6.38873L19.1201 6.15248L18.7976 6.38873L18.9176 6.00248L18.5913 5.76998H19.0001L19.1201 5.38748ZM21.4001 5.38748L21.5238 5.76998H21.9288L21.6026 6.00248L21.7263 6.38873L21.4001 6.15248L21.0738 6.38873L21.1976 6.00248L20.8751 5.76998H21.2763L21.4001 5.38748ZM11.1401 6.34748L11.2676 6.73748H11.6651L11.3426 6.97373L11.4663 7.35623L11.1401 7.11998L10.8176 7.35623L10.9376 6.97373L10.6113 6.73748H11.0201L11.1401 6.34748ZM13.4201 6.34748L13.5438 6.73748H13.9488L13.6226 6.97373L13.7426 7.35623L13.4201 7.11998L13.0938 7.35623L13.2176 6.96998L12.8951 6.73373H13.2926L13.4201 6.34748ZM15.7001 6.34748L15.8238 6.73373H16.2251L15.9026 6.96998L16.0263 7.35248L15.7001 7.11623L15.3738 7.35248L15.4976 6.96623L15.1713 6.72998H15.5763L15.7001 6.34748ZM17.9801 6.34748L18.1038 6.73373H18.5088L18.1826 6.96998L18.3063 7.35248L17.9801 7.11623L17.6538 7.35248L17.7813 6.96623L17.4513 6.72998H17.8526L17.9801 6.34748ZM20.2601 6.34748L20.3838 6.73373H20.7851L20.4626 6.96998L20.5863 7.35248L20.2601 7.11623L19.9338 7.35248L20.0576 6.96623L19.7351 6.72998H20.1363L20.2601 6.34748ZM22.5401 6.34748L22.6638 6.73373H23.0688L22.7388 6.96998L22.8663 7.35248L22.5401 7.11623L22.2138 7.35248L22.3413 6.96623L22.0113 6.72998H22.4163L22.5401 6.34748ZM12.2801 7.32248L12.4038 7.70498H12.8126L12.4863 7.94123L12.6101 8.32748L12.2838 8.08748L11.9576 8.32373L12.0813 7.94123L11.7588 7.70498H12.1601L12.2801 7.32248ZM14.5601 7.32248L14.6876 7.70498H15.0888L14.7588 7.94123L14.8863 8.32748L14.5601 8.08748L14.2338 8.32373L14.3576 7.94123L14.0313 7.70498H14.4363L14.5601 7.32248ZM16.8401 7.32248L16.9638 7.70498H17.3688L17.0426 7.94123L17.1663 8.32748L16.8401 8.08748L16.5138 8.32373L16.6376 7.94123L16.3151 7.70498H16.7126L16.8401 7.32248ZM19.1201 7.32248L19.2476 7.70498H19.6488L19.3226 7.94123L19.4463 8.32748L19.1201 8.08748L18.7976 8.32373L18.9176 7.94123L18.5913 7.70498H19.0001L19.1201 7.32248ZM21.4001 7.32248L21.5238 7.70498H21.9288L21.6026 7.94123L21.7263 8.32748L21.4001 8.08748L21.0738 8.32373L21.1976 7.94123L20.8751 7.70498H21.2763L21.4001 7.32248ZM11.1401 8.29373L11.2676 8.67623H11.6651L11.3426 8.91248L11.4663 9.29873L11.1401 9.05873L10.8176 9.29498L10.9376 8.91248L10.6113 8.67623H11.0201L11.1401 8.29373ZM13.4201 8.29373L13.5438 8.67623H13.9488L13.6226 8.91248L13.7426 9.29498L13.4201 9.05873L13.0938 9.29498L13.2176 8.91248L12.8951 8.67623H13.2926L13.4201 8.29373ZM15.7001 8.29373L15.8238 8.67623H16.2251L15.9026 8.91248L16.0263 9.29873L15.7001 9.05873L15.3738 9.29498L15.4976 8.91248L15.1713 8.67623H15.5763L15.7001 8.29373ZM17.9801 8.29373L18.1038 8.67623H18.5088L18.1826 8.91248L18.3063 9.29873L17.9801 9.05873L17.6538 9.29498L17.7813 8.91248L17.4513 8.67623H17.8526L17.9801 8.29373ZM20.2601 8.29373L20.3838 8.67623H20.7851L20.4626 8.91248L20.5863 9.29873L20.2601 9.05873L19.9338 9.29498L20.0576 8.91248L19.7351 8.67623H20.1363L20.2601 8.29373ZM22.5401 8.29373L22.6638 8.67623H23.0688L22.7388 8.91248L22.8663 9.29873L22.5401 9.05873L22.2138 9.29498L22.3376 8.91248L22.0076 8.67623H22.4126L22.5401 8.29373ZM12.2801 9.26123L12.4038 9.64748H12.8126L12.4863 9.87998L12.6101 10.2662L12.2838 10.0262L11.9576 10.2662L12.0813 9.87998L11.7588 9.64373H12.1601L12.2801 9.26123ZM14.5601 9.26123L14.6876 9.64748H15.0888L14.7588 9.87998L14.8863 10.2662L14.5601 10.0262L14.2338 10.2662L14.3576 9.87998L14.0313 9.64373H14.4363L14.5601 9.26123ZM16.8401 9.26123L16.9638 9.64748H17.3688L17.0426 9.87998L17.1663 10.2662L16.8401 10.0262L16.5138 10.2662L16.6376 9.87998L16.3151 9.64373H16.7126L16.8401 9.26123ZM19.1201 9.26123L19.2476 9.64748H19.6488L19.3226 9.87998L19.4463 10.2662L19.1201 10.0262L18.7976 10.2662L18.9176 9.87998L18.5913 9.64373H19.0001L19.1201 9.26123ZM21.4001 9.26123L21.5238 9.64748H21.9288L21.6026 9.87998L21.7263 10.2662L21.4001 10.0262L21.0738 10.2662L21.1976 9.87998L20.8751 9.64373H21.2763L21.4001 9.26123ZM11.1401 10.2287L11.2676 10.615H11.6651L11.3426 10.8512L11.4663 11.23L11.1401 10.9975L10.8176 11.23L10.9376 10.8475L10.6113 10.6112H11.0201L11.1401 10.2287ZM13.4201 10.2287L13.5438 10.615H13.9488L13.6226 10.8512L13.7463 11.23L13.4201 10.9975L13.0938 11.23L13.2213 10.8475L12.8951 10.6112H13.2926L13.4201 10.2287ZM15.7001 10.2287L15.8238 10.615H16.2251L15.9026 10.8512L16.0263 11.23L15.7001 10.9975L15.3738 11.23L15.4976 10.8475L15.1713 10.6112H15.5763L15.7001 10.2287ZM17.9801 10.2287L18.1038 10.615H18.5088L18.1826 10.8512L18.3063 11.23L17.9801 10.9975L17.6538 11.23L17.7813 10.8475L17.4513 10.6112H17.8526L17.9801 10.2287ZM20.2601 10.2287L20.3838 10.615H20.7851L20.4626 10.8512L20.5863 11.23L20.2601 10.9975L19.9338 11.23L20.0576 10.8475L19.7351 10.6112H20.1363L20.2601 10.2287ZM22.5401 10.2287L22.6638 10.615H23.0688L22.7388 10.8512L22.8663 11.23L22.5401 10.9975L22.2138 11.23L22.3413 10.8475L22.0113 10.6112H22.4163L22.5401 10.2287ZM12.2801 11.2L12.4038 11.5825H12.8126L12.4863 11.8187L12.6101 12.205L12.2838 11.965L11.9576 12.2012L12.0813 11.8187L11.7588 11.5825H12.1601L12.2801 11.2ZM14.5601 11.2L14.6876 11.5825H15.0888L14.7588 11.8187L14.8863 12.205L14.5601 11.965L14.2338 12.2012L14.3576 11.8187L14.0313 11.5825H14.4363L14.5601 11.2ZM16.8401 11.2L16.9638 11.5825H17.3688L17.0426 11.8187L17.1663 12.205L16.8401 11.965L16.5138 12.2012L16.6376 11.8187L16.3151 11.5825H16.7126L16.8401 11.2ZM19.1201 11.2L19.2476 11.5825H19.6488L19.3226 11.8187L19.4463 12.205L19.1201 11.965L18.7976 12.2012L18.9176 11.8187L18.5913 11.5825H19.0001L19.1201 11.2ZM21.4001 11.2L21.5238 11.5825H21.9288L21.6026 11.8187L21.7263 12.205L21.4001 11.965L21.0738 12.2012L21.1976 11.8187L20.8751 11.5825H21.2763L21.4001 11.2ZM11.1401 12.1712L11.2676 12.5537H11.6651L11.3426 12.79L11.4663 13.1725L11.1401 12.9362L10.8176 13.1725L10.9376 12.7862L10.6113 12.55H11.0201L11.1401 12.1712ZM13.4201 12.1712L13.5438 12.5537H13.9488L13.6226 12.79L13.7463 13.1725L13.4201 12.9362L13.0938 13.1725L13.2213 12.7862L12.8951 12.55H13.2926L13.4201 12.1712ZM15.7001 12.1712L15.8238 12.5537H16.2251L15.9101 12.79L16.0338 13.1725L15.7076 12.9362L15.3813 13.1725L15.5051 12.7862L15.1788 12.55H15.5838L15.7001 12.1712ZM17.9801 12.1712L18.1038 12.5537H18.5088L18.1826 12.79L18.3063 13.1725L17.9801 12.9362L17.6538 13.1725L17.7813 12.7862L17.4513 12.55H17.8526L17.9801 12.1712ZM20.2601 12.1712L20.3838 12.5537H20.7851L20.4626 12.79L20.5863 13.1725L20.2601 12.9362L19.9338 13.1725L20.0576 12.7862L19.7351 12.55H20.1363L20.2601 12.1712ZM22.5401 12.1712L22.6638 12.5537H23.0688L22.7388 12.79L22.8663 13.1725L22.5401 12.9362L22.2138 13.1725L22.3413 12.7862L22.0113 12.55H22.4163L22.5401 12.1712Z" fill="white"/>
<path fill-rule="evenodd" clip-rule="evenodd" d="M33.3 4.7H10.7V21.3H33.3V4.7ZM10 4V22H34V4H10Z" fill="#DFDFDF"/>
</g>
<defs>
<clipPath id="clip0_94_1097">
<rect x="10" y="4" width="24" height="18" fill="white"/>
</clipPath>
</defs>
</svg>
